<svg width="120" height="120" viewBox="0 0 120 120" fill="none" xmlns="http://www.w3.org/2000/svg">
<path d="M52.8203 79.3332C53.195 79.7952 53.5828 80.2444 53.9805 80.6819C50.5478 82.5081 46.6814 83.499 42.6973 83.4993C42.1656 83.4993 41.6538 83.7099 41.2773 84.0852L40.1406 85.2209C41.6402 87.8016 42.5 90.8005 42.5 94.0002C42.4999 103.665 34.6649 111.5 25 111.5C15.3351 111.5 7.50014 103.665 7.5 94.0002C7.5 84.3352 15.335 76.5002 25 76.5002C28.1989 76.5002 31.1971 77.3588 33.7773 78.8577L44.0801 68.5559L52.8203 79.3332ZM25 85.5002C20.3056 85.5002 16.5 89.3058 16.5 94.0002C16.5001 98.6945 20.3057 102.5 25 102.5C29.6943 102.5 33.4999 98.6945 33.5 94.0002C33.5 89.3058 29.6944 85.5002 25 85.5002ZM103.764 11.008C103.784 11.0092 103.805 11.0105 103.826 11.0119C104.226 11.0407 104.625 11.123 105.01 11.26C105.03 11.2673 105.051 11.2749 105.071 11.2825C105.12 11.3005 105.169 11.3193 105.217 11.3391C105.228 11.3436 105.239 11.3491 105.25 11.3537C105.306 11.3772 105.361 11.4021 105.416 11.428C105.425 11.432 105.434 11.4365 105.442 11.4407C105.498 11.4671 105.553 11.4948 105.607 11.5237C105.623 11.5319 105.639 11.5406 105.654 11.5491C105.764 11.609 105.873 11.6734 105.979 11.7434C106.005 11.761 106.031 11.7799 106.058 11.7981C106.151 11.8631 106.245 11.9311 106.335 12.0041C106.782 12.367 107.14 12.7996 107.409 13.2717C107.428 13.3044 107.447 13.3372 107.465 13.3703C107.521 13.4752 107.573 13.5823 107.62 13.6907C107.628 13.7081 107.635 13.7259 107.643 13.7434C107.663 13.7906 107.682 13.8382 107.7 13.886C107.707 13.9041 107.714 13.9225 107.721 13.9407C107.735 13.9791 107.749 14.0181 107.762 14.0569C107.772 14.0886 107.783 14.1207 107.793 14.1526C107.828 14.2646 107.858 14.3783 107.884 14.4924C107.888 14.5129 107.894 14.5334 107.898 14.5539C107.907 14.5924 107.914 14.6315 107.921 14.6702C107.927 14.7052 107.935 14.7404 107.94 14.7756C107.947 14.8148 107.952 14.8544 107.957 14.8938C107.961 14.9214 107.965 14.9492 107.968 14.9768C107.972 15.0157 107.977 15.0549 107.98 15.094C107.983 15.1255 107.986 15.1572 107.988 15.1887C107.996 15.3036 107.999 15.4191 107.998 15.5344C107.998 15.5607 107.998 15.5872 107.997 15.6135C107.996 15.6519 107.994 15.6904 107.992 15.7287C107.99 15.7638 107.989 15.7992 107.986 15.8342C107.984 15.8722 107.98 15.9105 107.977 15.9485C107.974 15.9741 107.971 16 107.968 16.0256C107.962 16.0737 107.956 16.1222 107.949 16.1702C107.946 16.1932 107.941 16.2165 107.937 16.2395C107.93 16.2824 107.922 16.3256 107.914 16.3684C107.908 16.3993 107.901 16.4304 107.895 16.4612C107.886 16.4992 107.878 16.5376 107.869 16.5754C107.861 16.6103 107.85 16.6452 107.841 16.6799C107.832 16.7123 107.824 16.7453 107.814 16.7776C107.802 16.819 107.789 16.8605 107.775 16.9016C107.767 16.9286 107.757 16.9558 107.748 16.9827C107.734 17.0218 107.72 17.061 107.705 17.0998C107.694 17.128 107.684 17.1568 107.673 17.1848C107.654 17.231 107.634 17.2768 107.613 17.3225C107.604 17.3431 107.595 17.3645 107.586 17.385C107.432 17.7179 107.236 18.038 106.995 18.3352L75.3389 57.3674L65.3037 47.3323L100.265 12.3713C100.847 11.768 101.566 11.3588 102.332 11.1535C102.339 11.1516 102.347 11.1496 102.354 11.1477C102.411 11.1329 102.468 11.1193 102.525 11.1067C102.537 11.1041 102.549 11.1013 102.561 11.0989C102.758 11.0568 102.959 11.0282 103.16 11.0129C103.167 11.0124 103.173 11.0114 103.18 11.011C103.311 11.0016 103.444 10.9991 103.576 11.0012C103.586 11.0014 103.596 11.001 103.605 11.0012C103.658 11.0024 103.711 11.005 103.764 11.008Z" fill="black"/>
<path d="M16.8193 11.0117C16.8249 11.0121 16.8304 11.0133 16.8359 11.0137C17.0387 11.0289 17.2404 11.0572 17.4395 11.0996C17.4482 11.1015 17.4571 11.1035 17.4658 11.1055C17.6612 11.1483 17.8542 11.2038 18.043 11.2725C18.0573 11.2777 18.0716 11.2837 18.0859 11.2891C18.6942 11.5175 19.2595 11.88 19.7344 12.3721L85.0674 77.7051C85.074 77.7116 85.0813 77.718 85.0879 77.7246L86.2207 78.8574C88.8013 77.358 91.8005 76.5 95 76.5C104.665 76.5 112.5 84.335 112.5 94C112.5 103.665 104.665 111.5 95 111.5C85.335 111.5 77.5 103.665 77.5 94C77.5 90.8008 78.3583 87.8021 79.8574 85.2217L78.7227 84.0859C78.3462 83.7106 77.8353 83.5 77.3037 83.5C70.0619 83.4999 63.2063 80.2328 58.6445 74.6084L57.3477 73.0098C57.3323 72.9909 57.3161 72.9721 57.3008 72.9531L13.0049 18.3359C12.8607 18.1582 12.732 17.972 12.6191 17.7803C12.6074 17.7604 12.5963 17.7397 12.585 17.7197C12.5229 17.6105 12.4652 17.4994 12.4131 17.3867C12.401 17.3606 12.3895 17.3339 12.3779 17.3076C12.3605 17.2679 12.3434 17.2276 12.3271 17.1875C12.286 17.0858 12.2491 16.9825 12.2158 16.8789C12.2051 16.8455 12.1935 16.8119 12.1836 16.7783C12.1741 16.7461 12.166 16.713 12.1572 16.6807C12.1478 16.646 12.1375 16.611 12.1289 16.5762C12.1196 16.5384 12.1118 16.4998 12.1035 16.4619C12.0968 16.4312 12.09 16.4 12.084 16.3691C12.0769 16.3329 12.0706 16.2961 12.0645 16.2598C12.058 16.2219 12.0514 16.1835 12.0459 16.1455C12.0418 16.117 12.0377 16.0881 12.0342 16.0596C12.0293 16.0204 12.0253 15.9807 12.0215 15.9414C12.018 15.9061 12.0143 15.8703 12.0117 15.835C12.0091 15.8 12.0076 15.7645 12.0059 15.7295C12.0042 15.6955 12.0029 15.661 12.002 15.627C12.0014 15.6076 12.0003 15.5877 12 15.5684V15.4648C12.0001 15.4504 12.0007 15.4354 12.001 15.4209C12.0017 15.3813 12.0031 15.3413 12.0049 15.3018C12.0064 15.2671 12.0084 15.2319 12.0107 15.1973C12.0134 15.1583 12.0169 15.119 12.0205 15.0801C12.0228 15.0552 12.0246 15.0297 12.0273 15.0049C12.0326 14.9574 12.0391 14.9096 12.0459 14.8623C12.05 14.8338 12.054 14.8048 12.0586 14.7764C12.0633 14.7472 12.0689 14.7176 12.0742 14.6885C12.0826 14.6427 12.0908 14.5963 12.1006 14.5508C12.1047 14.5316 12.1099 14.5122 12.1143 14.4932C12.1255 14.444 12.1375 14.3945 12.1504 14.3457C12.1568 14.3214 12.164 14.2967 12.1709 14.2725C12.1822 14.2325 12.1936 14.192 12.2061 14.1523C12.2143 14.1261 12.2227 14.0994 12.2314 14.0732C12.2463 14.0286 12.262 13.9837 12.2783 13.9395C12.2848 13.9219 12.2921 13.9042 12.2988 13.8867C12.3166 13.8402 12.3341 13.793 12.3535 13.7471C12.3669 13.7153 12.3823 13.6838 12.3965 13.6523C12.4102 13.6218 12.4241 13.5908 12.4385 13.5605C12.4522 13.5318 12.4671 13.5031 12.4814 13.4746C12.759 12.9231 13.1545 12.419 13.665 12.0049C13.6955 11.9802 13.7269 11.9564 13.7578 11.9326C13.786 11.9109 13.8142 11.8891 13.8428 11.8682C13.8625 11.8537 13.8834 11.8403 13.9033 11.8262C13.9426 11.7983 13.9815 11.7696 14.0215 11.7432C14.1889 11.6324 14.3623 11.535 14.5391 11.4492C14.5562 11.4409 14.5736 11.4329 14.5908 11.4248C14.6434 11.4001 14.6967 11.377 14.75 11.3545C14.7608 11.3499 14.7714 11.3443 14.7822 11.3398C14.8304 11.3199 14.8791 11.3013 14.9277 11.2832C14.9484 11.2755 14.9694 11.2681 14.9902 11.2607C15.3743 11.124 15.7714 11.0416 16.1709 11.0127C16.193 11.0111 16.2152 11.0101 16.2373 11.0088C16.2887 11.0058 16.3401 11.0032 16.3916 11.002H16.6211C16.6873 11.0035 16.7533 11.007 16.8193 11.0117ZM95 85.5C92.6568 85.5 90.5346 86.4478 88.9971 87.9814C88.9944 87.9841 88.9919 87.9875 88.9893 87.9902C88.9868 87.9927 88.9839 87.9946 88.9814 87.9971C87.4478 89.5346 86.5 91.6568 86.5 94C86.5 98.6944 90.3056 102.5 95 102.5C99.6944 102.5 103.5 98.6944 103.5 94C103.5 89.3056 99.6944 85.5 95 85.5Z" fill="black"/>
</svg>
